{"title":"Skyline 2010 TS x264-Jucified","uid":5963471,"size":367417210,"categoryP":"video","categoryS":"movies","magnet":"?xt=urn:btih:4ba9fb00106a6d3b471d76b389ef17aa0ffde68b&amp;dn=Skyline+2010+TS+x264-Jucified&amp;tr=udp%3A%2F%2Ftracker.openbittorrent.com%3A80&amp;tr=udp%3A%2F%2Fopen.demonii.com%3A1337&amp;tr=udp%3A%2F%2Ftracker.coppersurfer.tk%3A6969&amp;tr=udp%3A%2F%2Fexodus.desync.com%3A6969","seeders":0,"leechers":0,"uploader":".BONE.","files":2,"time":1290029201,"description":"IMDB Link\n &lt;a href=&quot;\nhttp://www.imdb.com/title/tt1564585/&quot; rel=&quot;nofollow&quot; target=&quot;_NEW&quot;&gt;\nhttp://www.imdb.com/title/tt1564585/&lt;/a&gt;\n\nIMDB Rating\n\n4.8/10 (3,088 votes)\n\nRelease Date\n\n12 November 2010 (UK)\n\nGenre\n\nSci-Fi | Thriller\n\nCast\n\nEric Balfour ... Jarrod\nScottie Thompson ... Elaine\nDaniel ... Candice\nCrystal Reed ... Denise\nNeil Hopkins ... Ray\nDavid Zayas ... Oliver\nDonald Faison ... Terry\nRobin Gammell ... Walt\nTanya Newbould ... Jen\nJ. Paul Boehmer ... Colin\nPhet Mahathongdy ... Airplane Mom / Bartender (as Phet Mahathongdy O'Donnell)\nByron McIntyre ... Limo Driver\nJackie Marin ... Girl in Pool\nTony Black ... Guy at Party\nEliza Till ... Girl at Party\nJames Huang ... Soldier #1\nErik Rondell ... Soldier #2\nJohnny DeBeer ... Rocket Soldier\nLauren Marin ... Abducted Girl\nMatt Frels ... Abducted Guy\nPam Levin ... Pregnant Abductee\n\nPlot\n\nStrange lights descend on the city of Los Angeles, drawing people outside like moths to a flame where an extraterrestrial force threatens to swallow the entire human population off the face of the Earth.\n\nSource Used\n\nSkyline.TELESYNC.XviD-TWiZTED (Thanks)\n\nGeneral\n\nComplete name : Skyline, 2010, TS, x264-Jucified (350MB).mp4\nFormat : MPEG-4\nFormat profile : Base Media\nCodec ID : isom\nFile size : 350 MiB\nDuration : 1h 24mn\nOverall bit rate : 579 Kbps\n\nVideo\n\nFormat : AVC\nFormat/Info : Advanced Video Codec\nFormat profile : &lt;a class=&quot;__cf_email__&quot; href=&quot;/cdn-cgi/l/email-protection&quot; data-cfemail=&quot;622a0b050a222e564c53&quot;&gt;[email&amp;#160;protected]&lt;/a&gt;&lt;script cf-hash='f9e31' type=&quot;text/javascript&quot;&gt;\n/* &lt;![CDATA[ */!function(){try{var t=&quot;currentScript&quot;in document?document.currentScript:function(){for(var t=document.getElementsByTagName(&quot;script&quot;),e=t.length;e--;)if(t[e].getAttribute(&quot;cf-hash&quot;))return t[e]}();if(t&amp;&amp;t.previousSibling){var e,r,n,i,c=t.previousSibling,a=c.getAttribute(&quot;data-cfemail&quot;);if(a){for(e=&quot;&quot;,r=parseInt(a.substr(0,2),16),n=2;a.length-n;n+=2)i=parseInt(a.substr(n,2),16)^r,e+=String.fromCharCode(i);e=document.createTextNode(e),c.parentNode.replaceChild(e,c)}}}catch(u){}}();/* ]]&gt; */&lt;/script&gt;\nFormat settings, CABAC : Yes\nFormat settings, ReFrames : 2 frames\nCodec ID : avc1\nCodec ID/Info : Advanced Video Coding\nDuration : 1h 24mn\nBit rate mode : Variable\nBit rate : 543 Kbps\nMaximum bit rate : 1 170 Kbps\nWidth : 624 pixels\nHeight : 256 pixels\nDisplay aspect ratio : 2.438\nFrame rate mode : Constant\nFrame rate : 25.000 fps\nResolution : 24 bits\nColorimetry : 4:2:0\nScan type : Progressive\nBits/(Pixel*Frame) : 0.136\nStream size : 329 MiB (94%)\n\nAudio\n\nFormat : AAC\nFormat/Info : Advanced Audio Codec\nFormat version : Version 4\nFormat profile : LC\nFormat settings, SBR : No\nCodec ID : 40\nDuration : 1h 24mn\nBit rate mode : Variable\nBit rate : 32.0 Kbps\nMaximum bit rate : 38.3 Kbps\nChannel(s) : 2 channels\nChannel positions : L R\nSampling rate : 48.0 KHz\nResolution : 16 bits\nStream size : 19.4 MiB (6%)\n","torrent":{"xt":"urn:btih:4ba9fb00106a6d3b471d76b389ef17aa0ffde68b","amp;dn":"Skyline+2010+TS+x264-Jucified","amp;tr":["udp%3A%2F%2Ftracker.openbittorrent.com%3A80","udp%3A%2F%2Fopen.demonii.com%3A1337","udp%3A%2F%2Ftracker.coppersurfer.tk%3A6969","udp%3A%2F%2Fexodus.desync.com%3A6969"],"infoHash":"4ba9fb00106a6d3b471d76b389ef17aa0ffde68b","infoHashBuffer":{"type":"Buffer","data":[75,169,251,0,16,106,109,59,71,29,118,179,137,239,23,170,15,253,230,139]},"announce":[],"urlList":[]}}